<svg xmlns="http://www.w3.org/2000/svg" viewBox="0 0 18 18" width="100%" height="100%" fill="none">
  <g transform="translate(1.263,0.671)">
    <path d="M13.6967,9.22514C13.6965,9.28745 13.7176,9.34798 13.7565,9.39682L14.5833,10.4325C14.7329,10.6186 14.8225,10.8453 14.8404,11.0829C14.8584,11.3205 14.8039,11.5579 14.6841,11.7642L14.1993,12.5985C14.0797,12.8049 13.9002,12.9708 13.6844,13.0742C13.4686,13.1777 13.2264,13.2141 12.9895,13.1785L11.6724,12.9793C11.6101,12.9706 11.5467,12.9826 11.492,13.0134L9.93139,13.9094C9.87717,13.941 9.83511,13.9898 9.81186,14.048L9.32597,15.2807C9.23897,15.5022 9.08682,15.6926 8.88939,15.8269C8.69195,15.9612 8.45838,16.0331 8.21918,16.0335H7.24962C7.01041,16.0331 6.77685,15.9612 6.57941,15.8269C6.38197,15.6926 6.22981,15.5022 6.14281,15.2807L5.65692,14.048C5.63367,13.9898 5.59162,13.941 5.53739,13.9094L3.9768,13.0134C3.92211,12.9825 3.85867,12.9705 3.79639,12.9793L2.47929,13.1785C2.24238,13.2141 2.00018,13.1777 1.78437,13.0742C1.56855,12.9708 1.38913,12.8049 1.26956,12.5985L0.784787,11.7642C0.664909,11.5579 0.610386,11.3205 0.628355,11.0829C0.646324,10.8453 0.735942,10.6186 0.885499,10.4325L1.71672,9.39682C1.7556,9.34798 1.77668,9.28745 1.77648,9.22514V7.43334C1.77668,7.37104 1.7556,7.3105 1.71672,7.26166L0.885499,6.22598C0.735942,6.03984 0.646324,5.81317 0.628355,5.57558C0.610386,5.33799 0.664909,5.10054 0.784787,4.89425L1.26956,4.05999C1.38913,3.85352 1.56855,3.68771 1.78437,3.58424C2.00018,3.48076 2.24238,3.44442 2.47929,3.47997L3.79307,3.67919C3.85534,3.68796 3.91879,3.67596 3.97348,3.64506L5.53739,2.74477C5.59162,2.71303 5.63367,2.66423 5.65692,2.60609L6.14503,1.37781C6.23203,1.15624 6.38418,0.965885 6.58162,0.831591C6.77905,0.697299 7.01262,0.625304 7.25182,0.625H8.2236C8.46281,0.625304 8.69637,0.697299 8.89381,0.831591C9.09125,0.965885 9.24339,1.15624 9.3304,1.37781L9.81629,2.60609C9.83869,2.66587 9.88084,2.71631 9.93582,2.74917L11.4964,3.64506C11.5512,3.67588 11.6146,3.68787 11.6768,3.67919L12.9939,3.47997C13.2308,3.44442 13.4731,3.48076 13.6889,3.58424C13.9046,3.68771 14.0841,3.85352 14.2037,4.05999L14.6884,4.89425C14.8083,5.10054 14.8628,5.33799 14.8449,5.57558C14.8269,5.81317 14.7373,6.03984 14.5877,6.22598L13.7565,7.26166C13.7176,7.3105 13.6965,7.37104 13.6967,7.43334V9.22514Z" stroke="currentColor" stroke-width="1.25" stroke-linecap="round" stroke-linejoin="round" fill="none"/>
    <path d="M7.73496,10.7899C9.30971,10.7899 10.1955,9.90407 10.1955,8.32932C10.1955,6.75457 9.30971,5.86877 7.73496,5.86877C6.16021,5.86877 5.27441,6.75457 5.27441,8.32932C5.27441,9.90407 6.16021,10.7899 7.73496,10.7899Z" stroke="currentColor" stroke-width="1.25" stroke-linecap="round" stroke-linejoin="round" fill="none"/>
  </g>
</svg>
