<svg xmlns="http://www.w3.org/2000/svg" viewBox="0 0 108 108" width="100%" height="100%" fill="none">
  <g transform="translate(30.667,30.667) scale(0.3333,0.3333)">
    <path d="M66.4785,71.2883C67.7119,71.2883 68.7117,72.2881 68.7117,73.5215V127.97C68.7116,134.611 63.3281,139.995 56.6871,139.995H36.2617C29.4298,139.995 23.9706,134.31 24.247,127.483L25.6414,93.0582C25.6572,92.6681 25.3452,92.3432 24.9548,92.3432H23.0763C22.6968,92.3432 22.3892,92.6508 22.3892,93.0303V137.767C22.3892,139 21.3894,140 20.156,140H2.23313C0.999806,140 0,139 0,137.767V83.3146C0,76.6736 5.38357,71.29 12.0245,71.29H36.9882C41.344,71.2901 44.8246,74.9145 44.6483,79.2667L43.0703,118.226C43.0545,118.617 43.3665,118.941 43.7569,118.941H45.6354C46.0148,118.941 46.3225,118.634 46.3225,118.254V73.5215C46.3225,72.2882 47.3223,71.2883 48.5556,71.2883H66.4785ZM127.975,71.2883C134.616,71.2883 140,76.6719 140,83.3129V127.975C140,134.616 134.616,140 127.975,140H83.3129C76.6719,140 71.2883,134.616 71.2883,127.975V83.3129C71.2883,76.6719 76.6719,71.2883 83.3129,71.2883H127.975ZM104.637,85.7178C94.1881,85.7178 85.7178,94.1881 85.7178,104.637V105.644C85.7178,116.649 94.6391,125.571 105.644,125.571C116.649,125.571 125.571,116.649 125.571,105.644C125.571,94.6391 116.649,85.7178 105.644,85.7178H104.637ZM66.4785,0C67.7119,0 68.7117,0.999806 68.7117,2.23313V56.6817C68.7116,63.3227 63.3281,68.7063 56.6871,68.7063H36.2617C29.4298,68.7063 23.9706,63.0213 24.247,56.1951L25.6414,21.7698C25.6572,21.3797 25.3452,21.0549 24.9548,21.0549H23.0763C22.6968,21.0549 22.3892,21.3625 22.3892,21.742V66.4785C22.3892,67.7119 21.3894,68.7117 20.156,68.7117H2.23313C0.999806,68.7117 0,67.7119 0,66.4785V12.0262C0,5.38525 5.38357,0.00167753 12.0245,0.00167753H36.9882C41.344,0.00171272 44.8246,3.62615 44.6483,7.97834L43.0703,46.9381C43.0545,47.3282 43.3665,47.6529 43.7569,47.6529H45.6354C46.0148,47.6529 46.3225,47.3453 46.3225,46.9658V2.23313C46.3225,0.999808 47.3223,0 48.5556,0H66.4785ZM127.975,0C134.616,0 140,5.38357 140,12.0245V66.4785C140,67.7118 139,68.7117 137.767,68.7117H109.832C108.523,68.7116 107.494,67.5906 107.607,66.2863L108.693,53.7186C108.732,53.2735 108.341,52.9068 107.897,52.956C107.3,53.0219 106.471,53.0922 105.644,53.0922C104.818,53.0922 103.988,53.0219 103.391,52.956C102.947,52.9068 102.557,53.2735 102.595,53.7186L103.681,66.2863C103.794,67.5906 102.766,68.7116 101.457,68.7117H73.5215C72.2882,68.7117 71.2883,67.7118 71.2883,66.4785V12.0245C71.2883,5.38357 76.6719,0 83.3129,0H127.975ZM101.057,8.2454C99.539,8.2454 98.3085,9.47594 98.3085,10.9939V18.6261C98.3085,19.1954 97.847,19.6568 97.2778,19.6568H89.4969C87.979,19.6568 86.7485,20.8873 86.7485,22.4053V31.7285C86.7485,33.2464 87.979,34.4769 89.4969,34.4769H97.2778C97.847,34.4769 98.3085,34.9384 98.3085,35.5076V43.2883C98.3085,44.8063 99.539,46.0368 101.057,46.0368H110.38C111.898,46.0368 113.129,44.8063 113.129,43.2883V35.5076C113.129,34.9384 113.59,34.4769 114.159,34.4769H121.791C123.309,34.4769 124.54,33.2464 124.54,31.7285V22.4053C124.54,20.8873 123.309,19.6568 121.791,19.6568H114.159C113.59,19.6568 113.129,19.1954 113.129,18.6261V10.9939C113.129,9.47595 111.898,8.24541 110.38,8.2454H101.057Z" fill="currentColor"/>
  </g>
</svg>
