<svg xmlns="http://www.w3.org/2000/svg" viewBox="0 0 13.9985 13.9984" width="100%" height="100%" fill="none">
  <path d="M11.0282,0.0458052C12.1905,-0.101857 12.8806,0.113903 13.3786,0.600563C13.6128,0.829405 13.8045,1.11854 13.9098,1.51339C14.0121,1.89725 14.0258,2.35528 13.951,2.91772C13.8025,4.03308 13.2888,5.67156 12.2313,8.18792C11.5061,9.91375 10.8953,11.364 10.1666,12.3245C9.79431,12.8152 9.36977,13.2091 8.85285,13.4484C8.32972,13.6906 7.7525,13.7559 7.10999,13.6544C6.64119,13.5803 6.11083,13.3591 5.58002,13.0652L4.97942,13.5986C3.98463,14.4823 2.35143,13.8138 2.35143,12.4486V10.5274C4.83804,8.13667 7.47238,5.95867 10.3077,3.94699C10.5892,3.74725 10.6555,3.35712 10.4558,3.0756C10.256,2.79408 9.86596,2.72778 9.58444,2.92752C6.72487,4.95637 4.0651,7.15235 1.55374,9.56037C1.3202,9.26376 1.10283,8.96293 0.909804,8.66661C0.483314,8.01188 0.144312,7.332 0.0475654,6.74726C-0.0573156,6.11336 0.0101794,5.54251 0.26068,5.02601C0.507394,4.51733 0.911884,4.10212 1.41246,3.73954C2.39363,3.02883 3.8752,2.43301 5.64211,1.72414C8.21743,0.690934 9.89126,0.19026 11.0282,0.0458052Z" fill="currentColor" fill-rule="evenodd" clip-rule="evenodd"/>
</svg>
