<svg xmlns="http://www.w3.org/2000/svg" viewBox="0 0 24 24" width="100%" height="100%" fill="none">
  <path d="M17,1H7C3.68629,1 1,3.68629 1,7V17C1,20.3137 3.68629,23 7,23H17C20.3137,23 23,20.3137 23,17V7C23,3.68629 20.3137,1 17,1Z" stroke="currentColor" stroke-width="1.6" fill="none"/>
  <path d="M13.9883,4.50098C14.058,4.50098 14.1277,4.51459 14.1921,4.54126C14.2563,4.56793 14.3151,4.60686 14.3643,4.65601C14.4134,4.70524 14.4524,4.76384 14.479,4.82812C14.5056,4.89234 14.5192,4.96126 14.5193,5.03076V7.81763H15.6472C15.7879,7.81763 15.9225,7.87326 16.022,7.97266C16.1214,8.07211 16.1781,8.20679 16.1782,8.34741V9.47657H17.3086C17.4491,9.47669 17.5839,9.53217 17.6834,9.63159C17.7828,9.73102 17.8383,9.86574 17.8384,10.0063V11.1379H18.9688C19.1095,11.1379 19.2451,11.1947 19.3448,11.2942C19.444,11.3937 19.4998,11.5284 19.4998,11.6689V13.9895C19.4998,14.1302 19.4441,14.266 19.3448,14.3655C19.2451,14.465 19.1095,14.5205 18.9688,14.5205H17.8384V16.1135H18.9688C19.1095,16.1135 19.2451,16.169 19.3448,16.2686C19.4443,16.3681 19.4998,16.5038 19.4998,16.6445V17.3074C19.4998,17.448 19.4441,17.5839 19.3448,17.6834C19.2451,17.7829 19.1095,17.8384 18.9688,17.8384H16.1782V18.9675C16.1781,19.1081 16.1214,19.2429 16.022,19.3423C15.9225,19.4416 15.7878,19.4973 15.6472,19.4973H8.34741C8.20683,19.4971 8.07208,19.4416 7.97266,19.3423C7.87326,19.2429 7.81778,19.1081 7.81763,18.9675V17.8384H5.03198C4.89121,17.8384 4.75555,17.7829 4.65601,17.6834C4.55658,17.5839 4.50098,17.448 4.50098,17.3074V16.6445C4.50098,16.5038 4.55647,16.3681 4.65601,16.2686C4.75554,16.169 4.89122,16.1135 5.03198,16.1135H6.15991V14.5205H5.03198C4.96228,14.5205 4.89252,14.5069 4.82812,14.4802C4.76392,14.4536 4.70517,14.4146 4.65601,14.3655C4.60682,14.3163 4.56791,14.2576 4.54126,14.1934C4.51459,14.129 4.50098,14.0592 4.50098,13.9895V11.6689C4.50098,11.5284 4.55679,11.3937 4.65601,11.2942C4.75555,11.1947 4.89121,11.1379 5.03198,11.1379H6.15991V10.0063C6.16003,9.86583 6.21562,9.73101 6.31494,9.63159C6.41448,9.53206 6.55014,9.47657 6.69092,9.47657H7.81763V8.34741C7.81773,8.20681 7.87323,8.07209 7.97266,7.97266C8.07208,7.87323 8.20681,7.81776 8.34741,7.81763H9.47534V5.03076C9.47551,4.89021 9.53219,4.7554 9.63159,4.65601C9.73104,4.55663 9.86576,4.50106 10.0063,4.50098H13.9883ZM11.2014,17.7725H12.7944V16.1794H11.2014V17.7725ZM11.2014,9.01148C11.2014,9.15221 11.1447,9.28671 11.0452,9.38623C10.9457,9.48573 10.8111,9.54244 10.6704,9.54248H9.54248V10.6704C9.54248,10.8112 9.48577,10.9456 9.38623,11.0452C9.28669,11.1447 9.15224,11.2014 9.01148,11.2014H7.88477V12.7957H10.6704C10.8109,12.7957 10.9457,12.8514 11.0452,12.9507C11.1447,13.0502 11.2014,13.1859 11.2014,13.3267V14.4546H12.7944V13.3267C12.7944,13.1859 12.8499,13.0502 12.9495,12.9507C13.049,12.8512 13.1847,12.7957 13.3254,12.7957H16.1135V11.2014H14.9832C14.8426,11.2013 14.7078,11.1446 14.6084,11.0452C14.509,10.9457 14.4534,10.8111 14.4534,10.6704V9.54248H13.3254C13.1847,9.54248 13.049,9.48577 12.9495,9.38623C12.8501,9.28673 12.7944,9.15208 12.7944,9.01148V7.88477H11.2014V9.01148ZM12.3293,9.47657C12.4701,9.47657 12.6058,9.53206 12.7053,9.63159C12.8046,9.73101 12.8602,9.86583 12.8604,10.0063V12.333C12.8602,12.4735 12.8046,12.6084 12.7053,12.7078C12.6058,12.8073 12.4701,12.8628 12.3293,12.8628H11.6665C11.5257,12.8628 11.3901,12.8073 11.2905,12.7078C11.1912,12.6084 11.1356,12.4735 11.1355,12.333V10.0063C11.1356,9.86583 11.1912,9.73101 11.2905,9.63159C11.3901,9.53206 11.5257,9.47657 11.6665,9.47657H12.3293ZM5.69482,4.50098C5.83559,4.50098 5.97126,4.55647 6.07081,4.65601C6.17018,4.7554 6.22567,4.89023 6.22583,5.03076V6.15991H7.35376C7.49453,6.15992 7.63019,6.21541 7.72973,6.31494C7.82922,6.41447 7.88477,6.55019 7.88477,6.69092V7.35376C7.88477,7.49453 7.82928,7.63019 7.72973,7.72973C7.63021,7.82923 7.49449,7.88477 7.35376,7.88477H5.03198C4.89121,7.88477 4.75555,7.82927 4.65601,7.72973C4.55647,7.63019 4.50098,7.49453 4.50098,7.35376V5.03076C4.50113,4.8903 4.55673,4.75539 4.65601,4.65601C4.75555,4.55647 4.89121,4.50098 5.03198,4.50098H5.69482ZM18.9688,4.50098C19.1095,4.50098 19.2451,4.55647 19.3448,4.65601C19.444,4.75539 19.4996,4.8903 19.4998,5.03076V7.35376C19.4998,7.49453 19.4443,7.63019 19.3448,7.72973C19.2451,7.82927 19.1095,7.88477 18.9688,7.88477H16.6445C16.504,7.88477 16.3693,7.82896 16.2698,7.72973C16.1702,7.63019 16.1135,7.49453 16.1135,7.35376V6.69092C16.1135,6.55014 16.1702,6.41448 16.2698,6.31494C16.3693,6.21562 16.5039,6.15992 16.6445,6.15991H17.7749V5.03076C17.775,4.89022 17.8305,4.7554 17.9299,4.65601C18.0295,4.55647 18.1651,4.50098 18.3059,4.50098H18.9688Z" fill="currentColor"/>
</svg>
