<svg xmlns="http://www.w3.org/2000/svg" viewBox="0 0 24 24" width="100%" height="100%" fill="none">
  <g transform="translate(0.9984,2.5691) scale(1.5714,1.5714)">
    <path d="M7.00195,0C8.16665,4.65643e-05 9.30327,0.0850764 10.3916,0.183594H10.3945C11.2277,0.263041 12.0197,0.578562 12.6357,1.09668C13.2532,1.61617 13.6636,2.31557 13.7695,3.08887L13.7705,3.09082C13.8938,4.01717 14.0019,4.99525 14.002,6.00098C14.002,7.00688 13.8925,7.98469 13.7715,8.91016L13.7705,8.91309C13.6646,9.6861 13.2542,10.3857 12.6367,10.9053C12.0207,11.4235 11.2287,11.7399 10.3955,11.8193H10.3926C9.30229,11.9178 8.16563,12.0029 7.00195,12.0029C5.8381,12.0029 4.70077,11.9178 3.61133,11.8193H3.6084C2.77512,11.74 1.98328,11.4235 1.36719,10.9053C0.749594,10.3857 0.339276,9.68632 0.233398,8.91309L0.232422,8.91113C0.109101,7.98471 0,7.00677 0,6.00098C3.46414e-05,4.99541 0.109149,4.01875 0.232422,3.0918L0.233398,3.08887C0.339385,2.31563 0.749595,1.61619 1.36719,1.09668C1.98323,0.578666 2.77524,0.262955 3.6084,0.183594H3.61133C4.70076,0.0850765 5.83708,0 7.00195,0ZM12.5215,3.20703C11.3517,4.25065 10.1258,5.22706 8.78516,6.09961C7.70729,6.80112 6.29468,6.80111 5.2168,6.09961C3.87636,5.22719 2.65013,4.25147 1.48047,3.20801C1.4776,3.22498 1.47401,3.24179 1.47168,3.25879C1.35036,4.17133 1.25101,5.08109 1.25098,6.00098C1.25098,6.92117 1.35033,7.83229 1.47168,8.74414L1.50195,8.90723C1.57976,9.23203 1.75647,9.54658 2.02832,9.81738L2.17188,9.94922L2.33105,10.0713C2.71617,10.3445 3.20101,10.5241 3.72754,10.5742H3.72656C4.80474,10.6717 5.89625,10.7529 7.00195,10.7529C8.10743,10.7529 9.19828,10.6716 10.2773,10.5742L10.5,10.5449C11.013,10.4584 11.4766,10.2482 11.832,9.94922C12.2365,9.60895 12.4724,9.18038 12.5322,8.74414C12.6517,7.83015 12.752,6.92055 12.752,6.00098C12.7519,5.08105 12.6526,4.17039 12.5312,3.25879L12.5215,3.20703ZM7.00195,1.25C5.89529,1.25 4.80468,1.32929 3.72656,1.42676L3.72754,1.42773C3.12597,1.485 2.57827,1.71204 2.17188,2.05371C2.1539,2.06884 2.13645,2.08512 2.11914,2.10059C3.3138,3.18001 4.55023,4.17527 5.89844,5.05273C6.56178,5.48444 7.44018,5.48445 8.10352,5.05273C9.45187,4.17518 10.6872,3.17917 11.8818,2.09961C11.8649,2.08451 11.8486,2.06849 11.8311,2.05371C11.4247,1.71194 10.877,1.48509 10.2754,1.42773V1.42676C9.19884,1.32935 8.10815,1.25005 7.00195,1.25Z" fill="currentColor"/>
  </g>
</svg>
